# xmcd
#
# Track frame offsets: 
#        150
#        25902
#        47727
#        62734
#        83956
#        106385
#        126431
#        147904
#        168522
#        188051
#        206640
#        226976
#        246929
#        264836
#        283213
#
# Disc length: 4036 seconds
#
# Revision: 0
# Processed by: cddbd v1.5.2PL0 Copyright (c) Steve Scherf et al.
# Submitted via: ExactAudioCopyFreeDBPlugin 1.0
#
DISCID=dc0fc20f
DTITLE=矢澤にこ(CV.徳井青空) - ももいろ♡えがお
DYEAR=2014
DGENRE=Anime
TTITLE0=もぎゅっと'love'で接近中！ (NICO Mix)
TTITLE1=愛してるばんざーい！ (NICO Mix)
TTITLE2=乙女式れんあい塾 (NICO Mix)
TTITLE3=Wonderful Rush (NICO Mix)
TTITLE4=Oh,Love&Peace! (NICO Mix)
TTITLE5=Listen to my heart!! (NICO Mix)
TTITLE6=after school NAVIGATORS (NICO Mix)
TTITLE7=僕らは今のなかで (NICO Mix)
TTITLE8=WILD STARS (NICO Mix)
TTITLE9=きっと青春が聞こえる (NICO Mix)
TTITLE10=輝夜の城で踊りたい (NICO Mix)
TTITLE11=これからのSomeday (NICO Mix)
TTITLE12=Wonder zone (NICO Mix)
TTITLE13=No brand girls (NICO Mix)
TTITLE14=START:DASH!! (NICO Mix)
EXTD=
EXTT0=
EXTT1=
EXTT2=
EXTT3=
EXTT4=
EXTT5=
EXTT6=
EXTT7=
EXTT8=
EXTT9=
EXTT10=
EXTT11=
EXTT12=
EXTT13=
EXTT14=
PLAYORDER=
